PathFileType	4	(X/Y/Z)	C:\Git\research_data\Projects\torsion_deformities_healthy_kinematics\simulations\P01\pre\dynamic04_l\marker_experimental.trc
DataRate	CameraRate	NumFrames	NumMarkers	Units	OrigDataRate	OrigDataStartFrame	OrigNumFrames
200	200	8	34	mm	200	1	694
Frame#	Time	C7			T10			CLAV			STRN			RBAK			LASI			RASI			SACR			LT1			LT2			LT3			LS1			LS2			LS3			LHEE			LTOE			RT1			RT2			RT3			RS1			RS2			RS3			RHEE			RTOE			LKNE			LANK			RKNE			RANK			LAJC			LKJC			RAJC			RKJC			RHJC			LHJC		
		X1	Y1	Z1	X2	Y2	Z2	X3	Y3	Z3	X4	Y4	Z4	X5	Y5	Z5	X6	Y6	Z6	X7	Y7	Z7	X8	Y8	Z8	X9	Y9	Z9	X10	Y10	Z10	X11	Y11	Z11	X12	Y12	Z12	X13	Y13	Z13	X14	Y14	Z14	X15	Y15	Z15	X16	Y16	Z16	X17	Y17	Z17	X18	Y18	Z18	X19	Y19	Z19	X20	Y20	Z20	X21	Y21	Z21	X22	Y22	Z22	X23	Y23	Z23	X24	Y24	Z24	X25	Y25	Z25	X26	Y26	Z26	X27	Y27	Z27	X28	Y28	Z28	X29	Y29	Z29	X30	Y30	Z30	X31	Y31	Z31	X32	Y32	Z32	X33	Y33	Z33	X34	Y34	Z34	

1	0.000000	-2257.259521	1038.210083	-308.998932	-2281.397949	864.304321	-314.192017	-2141.111328	1007.622559	-302.377258	-2089.013184	878.542908	-303.600281	-2286.284424	976.829102	-222.809906	-2162.711182	708.648376	-416.031494	-2145.942627	699.840210	-213.852493	-2301.531982	755.099426	-308.201782	-2156.466064	541.184509	-476.641449	-2184.179688	447.396973	-481.311493	-2047.574463	484.055634	-467.089172	-2154.598145	291.282501	-467.806854	-2273.134277	258.199219	-468.075287	-2144.110352	197.337891	-443.782135	-2297.056152	126.482330	-383.772339	-2166.390869	72.011497	-391.473267	-2214.599365	527.950684	-172.549454	-2284.817871	463.414856	-188.565094	-2146.087646	430.884277	-183.613846	-2229.300049	284.222260	-192.031876	-2328.079346	219.835724	-155.034241	-2197.188721	196.383362	-208.585587	-2332.974121	53.238216	-226.362152	-2192.117432	50.773716	-256.382385	-2112.154053	391.115753	-470.546478	-2257.932617	100.819351	-413.339264	-2230.341553	359.688538	-204.158737	-2282.803955	52.164986	-201.085754	-2252.439697	102.013832	-379.912384	-2096.566162	382.144104	-422.305511	-2288.856201	57.744923	-237.030472	-2226.076904	358.653748	-257.807434	-2216.220588	648.512035	-237.600002	-2228.493466	654.958718	-385.574489	
2	0.005000	-2250.502930	1037.992065	-308.930817	-2274.706787	864.161438	-314.420898	-2134.327393	1007.350037	-302.525635	-2082.316895	878.117004	-303.584686	-2279.198242	976.602539	-222.398590	-2155.495361	708.307129	-416.053589	-2140.331787	699.087952	-213.744293	-2295.131348	754.938965	-309.287567	-2148.407715	541.653809	-477.056763	-2175.622070	447.765533	-481.413849	-2039.166626	484.942749	-467.087555	-2142.823975	290.417236	-468.170135	-2259.953613	252.774994	-468.691681	-2128.741211	196.839386	-444.789948	-2278.593262	119.495613	-385.361908	-2145.862305	70.502632	-393.480988	-2210.648438	527.780823	-172.934753	-2281.479492	464.040985	-189.142258	-2143.103027	429.836273	-183.683487	-2228.385498	284.235809	-192.010956	-2328.371826	220.493820	-156.328278	-2196.646240	196.164551	-207.899887	-2332.904297	53.637192	-226.741547	-2191.946045	50.713959	-256.340149	-2103.323486	391.843353	-470.305481	-2238.745117	95.750092	-415.021088	-2228.019043	359.661865	-204.452698	-2283.577637	52.585609	-201.350967	-2233.303955	96.929703	-381.585144	-2087.775635	383.138702	-422.002716	-2289.037842	58.126865	-237.396332	-2223.565918	358.533020	-258.084167	-2210.571742	647.979310	-238.137826	-2221.669820	654.726740	-386.206113	
3	0.010000	-2243.719238	1037.670410	-308.868225	-2268.003418	863.910706	-314.681061	-2127.488281	1006.918396	-302.675537	-2075.613037	877.518127	-303.561493	-2272.070557	976.271484	-221.971039	-2148.290283	707.754089	-416.207489	-2134.808838	698.177307	-213.575043	-2288.744385	754.618591	-310.443146	-2140.386475	541.838013	-477.406281	-2167.209229	447.883270	-481.351715	-2030.842651	485.472595	-466.976562	-2131.163574	289.543365	-468.513855	-2246.701660	247.336548	-469.253296	-2113.457031	196.466537	-445.941559	-2259.849121	112.624153	-387.214935	-2125.281006	69.189568	-395.699097	-2206.617676	527.542358	-173.376297	-2277.999512	464.553833	-189.747696	-2139.989990	428.762665	-183.874451	-2227.338623	284.197205	-192.064987	-2328.447021	221.154892	-157.596710	-2196.003906	195.882065	-207.318695	-2332.828125	54.060741	-227.182343	-2191.775635	50.650753	-256.324310	-2094.670166	392.257629	-469.851685	-2219.398193	90.863358	-416.920410	-2225.500488	359.574493	-204.830185	-2284.217041	52.964203	-201.622955	-2213.973389	91.976280	-383.479553	-2079.165283	383.854950	-421.481720	-2289.127197	58.457493	-237.754715	-2220.890137	358.363617	-258.446564	-2205.022387	647.239447	-238.663717	-2214.888283	654.247860	-386.952754	
4	0.015000	-2236.910400	1037.247314	-308.816040	-2261.286865	863.553833	-314.975616	-2120.596924	1006.332825	-302.829285	-2068.901123	876.754395	-303.532959	-2264.906982	975.835999	-221.535675	-2141.091064	707.006287	-416.488068	-2129.364258	697.118774	-213.354248	-2282.364258	754.146606	-311.664886	-2132.411621	541.736511	-477.684021	-2158.947266	447.744781	-481.138153	-2022.611450	485.650757	-466.728119	-2119.620117	288.670776	-468.836884	-2233.380371	241.904037	-469.768250	-2098.267090	196.236938	-447.219666	-2240.837402	105.917595	-389.327271	-2104.659912	68.108742	-398.101837	-2202.513184	527.237427	-173.871231	-2274.386963	464.955383	-190.387390	-2136.755127	427.666595	-184.173431	-2226.130615	284.102875	-192.207062	-2328.229736	221.817139	-158.781311	-2195.239990	195.534988	-206.889221	-2332.745117	54.511021	-227.681152	-2191.609131	50.585522	-256.336060	-2086.200439	392.358948	-469.185638	-2199.903564	86.201431	-419.020355	-2222.794922	359.425995	-205.289124	-2284.675049	53.291550	-201.897614	-2194.457031	87.204369	-385.579620	-2070.753418	384.288177	-420.740662	-2289.106445	58.732605	-238.099060	-2218.051270	358.145477	-258.892273	-2199.560164	646.304992	-239.184101	-2208.140313	653.539386	-387.810975	
5	0.020000	-2230.077637	1036.725586	-308.779327	-2254.554443	863.092896	-315.307343	-2113.657227	1005.600098	-302.989532	-2062.180420	875.835754	-303.501892	-2257.713379	975.296570	-221.101486	-2133.892090	706.083008	-416.885773	-2123.985107	695.924866	-213.092743	-2275.983154	753.533203	-312.948578	-2124.491943	541.353760	-477.884705	-2150.841064	447.349915	-480.790833	-2014.483154	485.485809	-466.318054	-2108.194580	287.809143	-469.138885	-2219.988525	236.499451	-470.250671	-2083.181152	196.167770	-448.602142	-2221.578125	99.424675	-391.687286	-2084.014160	67.297325	-400.656036	-2198.342041	526.869263	-174.415970	-2270.652344	465.249969	-191.066803	-2133.406494	426.552216	-184.564484	-2224.741211	283.951263	-192.445023	-2327.670654	222.480392	-159.842056	-2194.340576	195.124359	-206.643753	-2332.655029	54.990486	-228.233276	-2191.448730	50.519764	-256.375031	-2077.921875	392.152527	-468.315430	-2180.277100	81.807747	-421.300568	-2219.914062	359.217194	-205.825302	-2284.923584	53.563255	-202.175217	-2174.771484	82.667274	-387.865479	-2062.559814	384.435974	-419.785767	-2288.967773	58.953133	-238.429611	-2215.052979	357.878876	-259.416534	-2194.169080	645.191879	-239.704790	-2201.415724	652.622238	-388.772929	
6	0.025000	-2223.223145	1036.108398	-308.763428	-2247.804688	862.530640	-315.678802	-2106.673584	1004.728149	-303.159241	-2055.449951	874.774109	-303.471802	-2250.496094	974.654724	-220.677948	-2126.687988	705.004822	-417.387299	-2118.657471	694.609985	-212.802200	-2269.592773	752.790405	-314.289459	-2116.635010	540.699707	-478.003876	-2142.893066	446.704132	-480.331451	-2006.468994	484.989105	-465.727722	-2096.886719	286.967743	-469.420471	-2206.523926	231.146667	-470.721161	-2068.208252	196.274948	-450.062286	-2202.097168	93.192245	-394.275269	-2063.363037	66.791817	-403.322021	-2194.111328	526.442261	-175.006195	-2266.806641	465.444183	-191.790710	-2129.953125	425.424133	-185.029434	-2223.159180	283.742920	-192.780762	-2326.750000	223.146118	-160.759445	-2193.298828	194.653091	-206.597305	-2332.557129	55.501892	-228.832672	-2191.295898	50.454929	-256.439270	-2069.842773	391.648193	-467.257202	-2160.537598	77.724770	-423.737610	-2216.870850	358.950439	-206.432388	-2284.956543	53.780682	-202.459106	-2154.940186	78.418098	-390.313843	-2054.603760	384.298492	-418.631989	-2288.713379	59.125126	-238.751129	-2211.900146	357.564758	-260.012360	-2188.831953	643.919249	-240.231035	-2194.704006	651.520134	-389.827200	
7	0.030000	-2216.348877	1035.399902	-308.773712	-2241.035156	861.870483	-316.092133	-2099.649902	1003.726257	-303.341705	-2048.708008	873.582642	-303.446655	-2243.260986	973.912659	-220.274811	-2119.473389	703.793335	-417.976410	-2113.364258	693.189941	-212.494629	-2263.183838	751.931580	-315.682251	-2108.847412	539.789368	-478.038391	-2135.103760	445.818268	-479.784973	-1998.580688	484.174805	-464.945526	-2085.693604	286.155060	-469.683075	-2192.981201	225.871017	-471.207031	-2053.357178	196.571854	-451.568970	-2182.429199	87.264183	-397.062775	-2042.730225	66.626335	-406.055054	-2189.828857	525.962158	-175.637085	-2262.862793	465.546844	-192.563049	-2126.405518	424.287201	-185.548325	-2221.384033	283.480560	-193.209961	-2325.477051	223.817398	-161.534607	-2192.115967	194.125916	-206.747070	-2332.450928	56.048252	-229.472061	-2191.150635	50.392307	-256.525421	-2061.971436	390.860138	-466.035065	-2140.706543	73.992554	-426.305511	-2213.681152	358.629700	-207.101852	-2284.788086	53.950539	-202.754715	-2134.993408	74.507591	-392.898193	-2046.902344	383.878357	-417.302734	-2288.354980	59.258713	-239.071243	-2208.600098	357.204742	-260.670441	-2183.528621	642.508497	-240.766746	-2187.993949	650.258802	-390.958899	
8	0.035000	-2209.456543	1034.604370	-308.815613	-2234.243164	861.116455	-316.549103	-2092.590576	1002.604736	-303.540405	-2041.952515	872.276001	-303.431061	-2236.014648	973.073364	-219.901993	-2112.242432	702.470032	-418.635040	-2108.087891	691.681519	-212.181992	-2256.746826	750.971130	-317.121124	-2101.134033	538.642700	-477.986816	-2127.470947	444.708435	-479.178802	-1990.830078	483.059937	-463.967133	-2074.611084	285.378479	-469.928986	-2179.354004	220.698914	-471.741638	-2038.637939	197.067978	-453.087280	-2162.615967	81.680061	-400.012787	-2022.147339	66.830643	-408.806793	-2185.501221	525.435547	-176.303284	-2258.833496	465.568787	-193.386810	-2122.774658	423.146210	-186.099838	-2219.424072	283.169128	-193.722626	-2323.886230	224.498856	-162.186905	-2190.801758	193.549271	-207.073700	-2332.335449	56.632824	-230.142990	-2191.013184	50.333004	-256.628937	-2054.315430	389.806274	-464.679657	-2120.809814	70.647209	-428.976349	-2210.362549	358.260468	-207.823364	-2284.451904	54.085609	-203.068527	-2114.968018	70.981857	-395.588959	-2039.471069	383.181152	-415.828735	-2287.913330	59.368553	-239.398911	-2205.162354	356.801147	-261.379578	-2178.238539	640.982682	-241.315300	-2181.273878	648.864852	-392.151475	
